# xmcd
#
# Track frame offsets: 
#        150
#        15167
#        27325
#        39894
#        49408
#        66304
#        84207
#        92694
#        108867
#        120613
#        132905
#        142367
#        154280
#        165081
#        175026
#        187104
#        197904
#        207255
#        215766
#        228138
#
# Disc length: 3161 seconds
#
# Revision: 1
# Processed by: cddbd v1.5.2PL0 Copyright (c) Steve Scherf et al.
# Submitted via: ExactAudioCopy v0.99pb4
#
DISCID=0f0c5714
DTITLE=Johnny Cash - Ring of Fire - Greatest Hits - CD2
DYEAR=2008
DGENRE=Country
TTITLE0=A Boy Named Sue (live recording)
TTITLE1=Understand Your Man
TTITLE2=The One On The Right Is The One On The Left
TTITLE3=If I Were A Carpenter (live recording)
TTITLE4=Sunday Mornin' Comin' Down (live recording) 
TTITLE5=Orange Blossom Special (live recording)
TTITLE6=Country Boy
TTITLE7=City Of New Orleans (live recording)
TTITLE8=The Highway Man (live recording)
TTITLE9=Peace In The Valley
TTITLE10=New Mexico
TTITLE11=Jackson - Duett with June Carter (live recording)
TTITLE12=Wide Open Road
TTITLE13=Born To Lose
TTITLE14=You're The Nearest Thing To Heaven
TTITLE15=Fools Hall Of Fame
TTITLE16=Down The Street To 301
TTITLE17=I Got Stripes (live recording)
TTITLE18=Long Black Veil
TTITLE19=Blue Train
EXTD=
EXTT0=
EXTT1=
EXTT2=
EXTT3=
EXTT4=
EXTT5=
EXTT6=
EXTT7=
EXTT8=
EXTT9=
EXTT10=
EXTT11=
EXTT12=
EXTT13=
EXTT14=
EXTT15=
EXTT16=
EXTT17=
EXTT18=
EXTT19=
PLAYORDER=
